<svg xmlns="http://www.w3.org/2000/svg" xmlns:xlink="http://www.w3.org/1999/xlink" viewBox="0 0 185.52 155.04"><defs><style>.cls-1{fill:url(#linear-gradient);}.cls-2{fill:url(#linear-gradient-2);}.cls-3{fill:url(#linear-gradient-3);}</style><linearGradient id="linear-gradient" y1="77.52" x2="122.21" y2="77.52" gradientUnits="userSpaceOnUse"><stop offset="0" stop-color="#896218"/><stop offset="0.37" stop-color="#c99715"/></linearGradient><linearGradient id="linear-gradient-2" x1="89.09" y1="77.52" x2="185.52" y2="77.52" gradientUnits="userSpaceOnUse"><stop offset="0" stop-color="#c99715"/><stop offset="0.97" stop-color="#896218"/></linearGradient><linearGradient id="linear-gradient-3" x1="31.01" y1="77.52" x2="124.16" y2="77.52" gradientUnits="userSpaceOnUse"><stop offset="0" stop-color="#896218"/><stop offset="0.01" stop-color="#8b6318"/><stop offset="0.25" stop-color="#a67a17"/><stop offset="0.5" stop-color="#b98a16"/><stop offset="0.75" stop-color="#c59415"/><stop offset="1" stop-color="#c99715"/></linearGradient></defs><g id="Layer_2" data-name="Layer 2"><g id="Layer_1-2" data-name="Layer 1"><rect class="cls-1" width="16.82" height="155.04" rx="4.47"/><path class="cls-2" d="M181.05,0h-14.7a4.48,4.48,0,0,0-3.16,1.32L90.39,74.37a4.47,4.47,0,0,0,0,6.31l72.8,73a4.47,4.47,0,0,0,3.16,1.31h14.7a4.47,4.47,0,0,0,4.47-4.47V4.47A4.47,4.47,0,0,0,181.05,0Z"/><path class="cls-3" d="M57.21,80.65a4.46,4.46,0,0,1,0-6.26L122.87,7.6A4.47,4.47,0,0,0,119.68,0H35.48A4.47,4.47,0,0,0,31,4.47v146.1A4.47,4.47,0,0,0,35.48,155h84.2a4.47,4.47,0,0,0,3.19-7.6Z"/></g></g></svg>